<svg width="25" height="24" viewBox="0 0 25 24" fill="none" xmlns="http://www.w3.org/2000/svg">
<g clip-path="url(#clip0_15_5)">
<path d="M16.4741 14.8447H15.4762L15.1225 14.5217C16.6384 12.8466 17.4216 10.5612 16.9921 8.13234C16.3983 4.80606 13.4676 2.14982 9.93046 1.74301C4.58688 1.12083 0.0896759 5.38038 0.74657 10.4416C1.17608 13.7918 3.98051 16.5677 7.49237 17.1301C10.0568 17.5369 12.4696 16.795 14.2382 15.3592L14.5793 15.6943V16.6395L19.9607 21.7246C20.4787 22.2152 21.3124 22.2152 21.8304 21.7246L21.843 21.7127C22.3609 21.2221 22.3609 20.4324 21.843 19.9418L16.4741 14.8447ZM8.89459 14.8447C5.74908 14.8447 3.20993 12.4398 3.20993 9.46046C3.20993 6.48117 5.74908 4.07619 8.89459 4.07619C12.0401 4.07619 14.5793 6.48117 14.5793 9.46046C14.5793 12.4398 12.0401 14.8447 8.89459 14.8447Z" fill="#0F73BD"/>
</g>
<defs>
<clipPath id="clip0_15_5">
<rect width="23.5078" height="22.2656" fill="white" transform="translate(0.682617 0.7547)"/>
</clipPath>
</defs>
</svg>
